<!-- Generator: Adobe Illustrator 23.1.0, SVG Export Plug-In  -->
<svg version="1.1" xmlns="http://www.w3.org/2000/svg" xmlns:xlink="http://www.w3.org/1999/xlink" x="0px" y="0px" width="299.4px"
	 height="40.3px" viewBox="0 0 299.4 40.3" style="enable-background:new 0 0 299.4 40.3;" xml:space="preserve">
<defs>
</defs>
<g>
	<g>
		<g>
			<path style="fill:#FFFFFF;stroke:#FFFFFF;stroke-width:0.25;stroke-miterlimit:2;" d="M8,21c-1.4,0-2.6,0.2-3.6,0.7
				c-1,0.5-1.9,1.2-2.4,2.1c-0.5,0.9-0.8,2-0.8,3.2c0,1.4,0.3,2.6,0.9,3.4c0.6,0.8,1.3,1.4,2.2,1.7C5,32.4,6,32.6,7.1,32.8l0.2,0
				l0,0l0.1,0l0,0l0.1,0C8.1,33,8.6,33.1,9,33.2c0.3,0.1,0.5,0.2,0.7,0.4c0.1,0.1,0.2,0.4,0.2,0.6c0,0.4-0.2,0.7-0.5,1
				c-0.5,0.3-1.1,0.4-2,0.4c-0.8,0-1.6-0.1-2.4-0.4c-0.8-0.3-1.4-0.7-2-1.2l-0.6-0.6l-0.4,0.7L0.4,37l-0.3,0.5l0.4,0.4
				c0.6,0.5,1.2,0.9,2,1.3c0.7,0.3,1.5,0.6,2.3,0.8L6,40.2l0.1,0h0.1h1.2c1.4,0,2.7-0.2,3.7-0.7c1.1-0.5,1.9-1.2,2.5-2.1
				c0.6-0.9,0.9-2,0.9-3.2c0-1.3-0.3-2.4-0.8-3.2c-0.5-0.8-1.2-1.4-2.1-1.7c-0.8-0.3-1.7-0.6-2.8-0.8l-0.1,0c-0.1,0-0.1,0-0.2,0
				c0,0-0.1,0-0.1,0c-0.8-0.2-1.3-0.3-1.7-0.4c-0.3-0.1-0.5-0.3-0.7-0.5c-0.2-0.2-0.2-0.4-0.2-0.7c0-0.4,0.1-0.6,0.5-0.8
				c0.4-0.3,1-0.4,1.9-0.4c0.6,0,1.2,0.1,1.8,0.3c0.6,0.2,1.3,0.6,1.9,1l0.7,0.5l0.4-0.7l1.3-2.8l0.2-0.5L13.8,23
				c-0.6-0.4-1.2-0.8-1.8-1.1c-0.6-0.3-1.3-0.5-2-0.7C9.3,21.1,8.6,21,8,21L8,21z"/>
			<path style="fill:#FFFFFF;stroke:#FFFFFF;stroke-width:0.25;stroke-miterlimit:2;" d="M35.1,21c-1.4,0-2.6,0.3-3.7,0.9
				c-1.1,0.6-1.9,1.5-2.5,2.6c-0.6,1.1-0.9,2.3-0.9,3.7v5.2c0,1.3,0.3,2.5,0.9,3.6c0.6,1,1.4,1.9,2.5,2.4c1.1,0.6,2.3,0.8,3.7,0.8
				c1.4,0,2.6-0.3,3.7-0.9c1.1-0.6,1.9-1.5,2.5-2.6c0.6-1.1,0.9-2.3,0.9-3.7v-3.4v-0.7h-0.7h-6h-0.7v0.7v3.2v0.7h0.7h1.9
				c0,0.4-0.1,0.7-0.3,0.9c-0.2,0.3-0.4,0.6-0.7,0.8c-0.3,0.2-0.7,0.3-1.2,0.3c-0.5,0-0.9-0.1-1.3-0.3c-0.3-0.2-0.6-0.4-0.8-0.7
				c-0.2-0.3-0.3-0.7-0.3-1.1v-5.2c0-0.5,0.1-0.9,0.3-1.3c0.2-0.4,0.4-0.6,0.8-0.8c0.3-0.2,0.7-0.3,1.2-0.3c0.3,0,0.6,0.1,0.9,0.2
				c0.3,0.1,0.5,0.3,0.7,0.5c0.2,0.2,0.3,0.4,0.4,0.7l0.2,0.5h0.5h3.5h0.8L42,26.7c-0.2-1.1-0.7-2.1-1.3-3c-0.6-0.9-1.5-1.6-2.4-2
				C37.3,21.2,36.2,21,35.1,21L35.1,21z"/>
			<polygon style="fill:#FFFFFF;stroke:#FFFFFF;stroke-width:0.25;stroke-miterlimit:2;" points="23.6,1.8 23,1.8 20.2,1.8 
				19.6,1.8 19.5,2.5 18.8,13.8 18.8,13.9 18.9,14.1 21,18.5 21.6,19.9 22.2,18.5 24.3,14.1 24.3,13.9 24.3,13.8 23.6,2.5 23.6,1.8 
							"/>
			<polygon style="fill:#FFFFFF;stroke:#FFFFFF;stroke-width:0.25;stroke-miterlimit:2;" points="27.4,10.5 27.1,11.1 21.6,23.8 
				16,11.1 15.7,10.5 15.1,10.8 11.3,12.5 10.7,12.8 11,13.4 19.6,32.3 19.8,32.7 20.2,32.7 23,32.6 23.4,32.6 23.6,32.2 32.1,13.4 
				32.4,12.7 31.8,12.5 28,10.8 27.4,10.5 			"/>
		</g>
		<g>
			<linearGradient id="SVGID_1_" gradientUnits="userSpaceOnUse" x1="7.363" y1="21.6854" x2="7.363" y2="39.5073">
				<stop  offset="0" style="stop-color:#F29D41"/>
				<stop  offset="1" style="stop-color:#F27E00"/>
			</linearGradient>
			<path style="fill:url(#SVGID_1_);" d="M11.2,29.9c-0.7-0.3-1.6-0.6-2.7-0.8c0,0-0.1,0-0.1,0c0,0-0.1,0-0.1,0c0,0-0.1,0-0.1,0
				c0,0-0.1,0-0.1,0c-0.7-0.2-1.3-0.3-1.7-0.4c-0.4-0.1-0.7-0.4-1-0.6C5.1,27.6,5,27.2,5,26.7v0c0-0.6,0.3-1.1,0.8-1.4
				C6.3,25,7,24.8,8,24.8c0.6,0,1.3,0.1,2,0.4c0.7,0.3,1.4,0.6,2,1.1l1.3-2.8c-0.5-0.4-1.1-0.7-1.7-1c-0.6-0.3-1.2-0.5-1.8-0.6
				c-0.6-0.1-1.2-0.2-1.8-0.2c-1.3,0-2.4,0.2-3.3,0.6c-0.9,0.4-1.6,1-2.1,1.8c-0.5,0.8-0.7,1.8-0.7,2.9v0c0,1.3,0.3,2.3,0.8,2.9
				c0.5,0.7,1.1,1.2,1.9,1.5c0.7,0.3,1.7,0.5,2.8,0.7l0.3,0c0,0,0,0,0.1,0c0,0,0,0,0.1,0c0.6,0.1,1.2,0.2,1.6,0.3
				c0.4,0.1,0.7,0.3,1,0.6c0.3,0.3,0.4,0.6,0.4,1.1v0c0,0.7-0.3,1.2-0.9,1.5c-0.6,0.4-1.4,0.5-2.4,0.5c-0.9,0-1.8-0.2-2.6-0.5
				c-0.8-0.3-1.6-0.7-2.2-1.3L1,37.3c0.5,0.5,1.1,0.8,1.8,1.2c0.7,0.3,1.4,0.6,2.2,0.7c0.8,0.2,1.1,0.3,1.1,0.3s0.4,0,1.2,0
				c1.3,0,2.5-0.2,3.4-0.6c1-0.4,1.7-1,2.2-1.8c0.5-0.8,0.7-1.7,0.7-2.9v0c0-1.2-0.2-2.1-0.7-2.8C12.5,30.7,11.9,30.2,11.2,29.9z"/>
			<linearGradient id="SVGID_2_" gradientUnits="userSpaceOnUse" x1="35.124" y1="21.6854" x2="35.124" y2="39.5073">
				<stop  offset="0" style="stop-color:#F29D41"/>
				<stop  offset="1" style="stop-color:#F27E00"/>
			</linearGradient>
			<path style="fill:url(#SVGID_2_);" d="M35.5,29.6v3.2h2.6V33c0,0.6-0.1,1.2-0.4,1.6c-0.2,0.5-0.6,0.8-1,1.1
				c-0.4,0.2-1,0.4-1.5,0.4c-0.6,0-1.1-0.1-1.6-0.3c-0.5-0.2-0.8-0.5-1-1c-0.2-0.4-0.4-0.9-0.4-1.4v-5.2c0-0.6,0.1-1.2,0.4-1.6
				c0.2-0.5,0.6-0.8,1-1.1c0.4-0.3,1-0.4,1.5-0.4c0.4,0,0.8,0.1,1.2,0.2c0.4,0.1,0.7,0.3,1,0.6c0.3,0.3,0.5,0.6,0.6,1h3.5
				c-0.2-1-0.6-1.9-1.2-2.7c-0.6-0.8-1.3-1.4-2.2-1.8c-0.9-0.4-1.8-0.6-2.9-0.6c-1.3,0-2.4,0.3-3.3,0.8c-1,0.5-1.7,1.3-2.2,2.3
				c-0.5,1-0.8,2.1-0.8,3.4v5.2c0,1.2,0.3,2.3,0.8,3.2c0.5,0.9,1.3,1.6,2.2,2.2c1,0.5,2.1,0.8,3.3,0.8c1.3,0,2.4-0.3,3.3-0.8
				c1-0.5,1.7-1.3,2.2-2.3c0.5-1,0.8-2.1,0.8-3.4v-3.4H35.5z"/>
			<linearGradient id="SVGID_3_" gradientUnits="userSpaceOnUse" x1="21.5862" y1="2.4926" x2="21.5862" y2="18.2581">
				<stop  offset="0" style="stop-color:#F29D41"/>
				<stop  offset="1" style="stop-color:#F27E00"/>
			</linearGradient>
			<polygon style="fill:url(#SVGID_3_);" points="23.6,13.8 23,2.5 20.2,2.5 19.5,13.8 21.6,18.3 			"/>
			<linearGradient id="SVGID_4_" gradientUnits="userSpaceOnUse" x1="21.5601" y1="11.3848" x2="21.5601" y2="31.9714">
				<stop  offset="0" style="stop-color:#F29D41"/>
				<stop  offset="1" style="stop-color:#F27E00"/>
			</linearGradient>
			<polygon style="fill:url(#SVGID_4_);" points="27.7,11.4 21.6,25.5 15.4,11.4 11.6,13.1 20.2,32 23,32 31.5,13.1 			"/>
		</g>
	</g>
	<g>
		<g>
			<path style="fill:#FFFFFF;" d="M62.5,0h1.4l4.3,11.5h-2.1l-2.9-8.3l-2.9,8.3h-2.1L62.5,0z M60.3,7.5h6v1.9h-6V7.5z"/>
			<path style="fill:#FFFFFF;" d="M69.6,3.3h2v8.2h-2V3.3z M74.4,6.7c0-0.5-0.1-0.9-0.4-1.2c-0.3-0.3-0.6-0.4-1.1-0.4
				c-0.4,0-0.8,0.1-1,0.4c-0.2,0.2-0.4,0.6-0.4,1l-0.2-1.7c0.2-0.5,0.6-0.9,0.9-1.1c0.4-0.3,0.8-0.4,1.3-0.4c0.6,0,1.1,0.1,1.5,0.4
				c0.4,0.3,0.7,0.7,0.9,1.2c0.2,0.5,0.3,1.2,0.3,1.9v4.8h-2V6.7z M79.2,6.7c0-0.5-0.1-0.9-0.4-1.2c-0.3-0.3-0.6-0.4-1.1-0.4
				c-0.4,0-0.8,0.1-1,0.4c-0.2,0.3-0.4,0.6-0.4,1.1L76,4.8c0.3-0.5,0.6-0.9,1-1.2c0.4-0.3,0.9-0.4,1.4-0.4c0.6,0,1.1,0.1,1.5,0.4
				c0.4,0.3,0.7,0.7,1,1.2c0.2,0.5,0.3,1.2,0.3,1.9v4.8h-2V6.7z"/>
			<path style="fill:#FFFFFF;" d="M83.7,10.9C83.3,10.5,83,9.9,83,9c0-0.8,0.2-1.4,0.7-1.8c0.5-0.4,1.2-0.6,2.2-0.6H88l0.1,1.5h-2.2
				c-0.4,0-0.6,0.1-0.8,0.2c-0.2,0.1-0.3,0.4-0.3,0.7c0,0.3,0.1,0.5,0.3,0.7c0.2,0.2,0.6,0.2,1,0.2c0.6,0,1-0.1,1.3-0.2
				C87.8,9.6,88,9.4,88,9.2l0.2,1.2c-0.1,0.3-0.2,0.5-0.4,0.7c-0.2,0.2-0.5,0.3-0.8,0.4c-0.3,0.1-0.7,0.1-1.1,0.1
				C84.9,11.6,84.2,11.4,83.7,10.9z M88,6.3c0-0.4-0.1-0.8-0.4-1c-0.3-0.2-0.6-0.4-1.1-0.4c-0.3,0-0.6,0.1-0.9,0.2
				c-0.3,0.1-0.6,0.2-0.8,0.4l-1.3-1.1c0.3-0.4,0.7-0.7,1.3-0.9c0.5-0.2,1.1-0.3,1.8-0.3c0.7,0,1.3,0.1,1.8,0.4
				c0.5,0.2,0.9,0.6,1.1,1c0.3,0.5,0.4,1,0.4,1.6v5.3H88V6.3z"/>
			<path style="fill:#FFFFFF;" d="M97.9,5l-3.7,4.7h3.9v1.8h-6.3V9.7l3.8-4.7h-3.7V3.3h6V5z"/>
			<path style="fill:#FFFFFF;" d="M99.9,0h2v2h-2V0z M99.9,3.3h2v8.2h-2V3.3z"/>
			<path style="fill:#FFFFFF;" d="M104,3.3h2v8.2h-2V3.3z M108.8,6.5c0-0.5-0.1-0.8-0.4-1.1c-0.3-0.2-0.6-0.4-1.1-0.4
				c-0.4,0-0.8,0.1-1,0.4c-0.2,0.2-0.4,0.6-0.4,1l-0.2-1.7c0.2-0.5,0.6-0.9,0.9-1.2c0.4-0.3,0.8-0.4,1.3-0.4c0.9,0,1.5,0.3,2,0.9
				c0.5,0.6,0.7,1.4,0.7,2.5v5h-2V6.5z"/>
			<path style="fill:#FFFFFF;" d="M114.1,11.2c-0.4-0.3-0.7-0.7-0.9-1.2c-0.2-0.5-0.3-1.1-0.3-1.9V6.6c0-0.7,0.1-1.4,0.3-1.9
				c0.2-0.5,0.5-0.9,0.9-1.2c0.4-0.3,0.9-0.4,1.5-0.4c0.5,0,0.9,0.1,1.2,0.4c0.4,0.3,0.7,0.6,0.9,1.1l-0.2,1.8
				c0-0.3-0.1-0.6-0.2-0.8c-0.1-0.2-0.3-0.4-0.5-0.5C116.7,5,116.5,5,116.2,5c-0.4,0-0.8,0.1-1,0.4c-0.2,0.3-0.4,0.7-0.4,1.2v1.5
				c0,0.5,0.1,0.9,0.4,1.2c0.2,0.3,0.6,0.4,1,0.4c0.3,0,0.5-0.1,0.7-0.2c0.2-0.1,0.4-0.3,0.5-0.5s0.2-0.5,0.2-0.8l0.1,1.8
				c-0.2,0.4-0.4,0.8-0.8,1c-0.4,0.3-0.8,0.4-1.3,0.4C115,11.6,114.5,11.4,114.1,11.2z M114.9,14.8c0,0-0.3-0.1-0.8-0.3
				c-0.5-0.2-0.9-0.6-1.2-1l1.3-1.2c0.2,0.2,0.4,0.4,0.7,0.5c0.3,0.1,0.5,0.2,0.8,0.2c0.5,0,0.9-0.1,1.2-0.4
				c0.3-0.3,0.5-0.7,0.5-1.2V3.3h2v7.9c0,0.7-0.1,1.4-0.4,1.9c-0.3,0.5-0.7,0.9-1.2,1.2c-0.5,0.3-1.2,0.4-2,0.4
				C115.3,14.8,114.9,14.8,114.9,14.8z"/>
		</g>
		<g>
			<path style="fill:#FFFFFF;" d="M63.1,39.7H59V16.9h4.1V39.7z"/>
			<path style="fill:#FFFFFF;" d="M70.7,39.1c-1.1-0.6-1.9-1.4-2.5-2.5s-0.9-2.4-0.9-4v-2.1c0-1.5,0.3-2.9,0.9-4s1.4-1.9,2.5-2.5
				c1.1-0.6,2.4-0.9,3.9-0.9c0.9,0,1.7,0.1,2.5,0.3c0.8,0.2,1.5,0.5,2.1,0.9c0.6,0.4,1.1,0.9,1.6,1.4l-2.6,2.5
				c-0.4-0.4-0.9-0.7-1.5-1c-0.6-0.2-1.1-0.3-1.8-0.3c-1.1,0-2,0.3-2.7,0.9c-0.6,0.6-0.9,1.5-0.9,2.6v2.1c0,1.2,0.3,2,0.9,2.7
				c0.6,0.6,1.5,0.9,2.7,0.9c0.6,0,1.2-0.1,1.8-0.4c0.6-0.2,1-0.6,1.5-1l2.6,2.7c-0.4,0.5-1,1-1.6,1.4c-0.6,0.4-1.3,0.7-2.1,0.9
				c-0.8,0.2-1.6,0.3-2.5,0.3C73.1,40,71.8,39.7,70.7,39.1z"/>
			<path style="fill:#FFFFFF;" d="M86.6,39.1c-1-0.6-1.8-1.4-2.4-2.4s-0.8-2.3-0.8-3.8v-2.7c0-1.5,0.3-2.7,0.8-3.8s1.3-1.9,2.4-2.4
				c1-0.6,2.3-0.8,3.8-0.8c1.5,0,2.7,0.3,3.8,0.8c1,0.6,1.8,1.4,2.4,2.4c0.5,1.1,0.8,2.3,0.8,3.8v2.7c0,1.5-0.3,2.8-0.8,3.8
				c-0.5,1.1-1.3,1.9-2.4,2.4S91.8,40,90.3,40C88.9,40,87.6,39.7,86.6,39.1z M92.5,35.3c0.5-0.6,0.8-1.4,0.8-2.4v-2.7
				c0-1-0.3-1.8-0.8-2.4C92,27.3,91.3,27,90.3,27c-0.9,0-1.7,0.3-2.2,0.8c-0.5,0.6-0.8,1.4-0.8,2.4v2.7c0,1,0.3,1.8,0.8,2.4
				c0.5,0.6,1.3,0.9,2.2,0.9C91.3,36.2,92,35.9,92.5,35.3z"/>
			<path style="fill:#FFFFFF;" d="M101.4,23.4h4v16.3h-4V23.4z M111,29.8c0-0.9-0.3-1.6-0.8-2.1c-0.5-0.5-1.2-0.7-2.1-0.7
				c-0.9,0-1.6,0.2-2,0.7c-0.5,0.5-0.7,1.2-0.7,2l-0.3-3.5c0.5-1,1.1-1.8,1.8-2.3s1.6-0.8,2.6-0.8c1.7,0,3.1,0.6,4,1.7
				s1.4,2.8,1.4,4.9v9.9h-4V29.8z"/>
			<path style="fill:#FFFFFF;" d="M128.4,16.9h4v22.9h-4V16.9z M130.6,35.9h5.4c1.5,0,2.7-0.4,3.5-1.1c0.8-0.7,1.2-1.8,1.2-3.2v-6.7
				c0-1.4-0.4-2.4-1.2-3.2c-0.8-0.7-2-1.1-3.5-1.1h-5.4v-3.8h5.3c1.9,0,3.5,0.3,4.8,1c1.3,0.6,2.3,1.6,3,2.8c0.7,1.2,1,2.7,1,4.4
				v6.5c0,1.7-0.3,3.1-1,4.4c-0.7,1.2-1.7,2.2-3,2.8c-1.3,0.7-3,1-4.9,1h-5.3V35.9z"/>
			<path style="fill:#FFFFFF;" d="M152,39.1c-1-0.6-1.8-1.4-2.4-2.4c-0.5-1.1-0.8-2.3-0.8-3.8v-2.7c0-1.5,0.3-2.7,0.8-3.8
				c0.5-1.1,1.3-1.9,2.4-2.4c1-0.6,2.3-0.8,3.8-0.8c1.5,0,2.7,0.3,3.8,0.8c1,0.6,1.8,1.4,2.4,2.4c0.5,1.1,0.8,2.3,0.8,3.8v2.7
				c0,1.5-0.3,2.8-0.8,3.8c-0.5,1.1-1.3,1.9-2.4,2.4c-1,0.6-2.3,0.8-3.8,0.8C154.3,40,153,39.7,152,39.1z M157.9,35.3
				c0.5-0.6,0.8-1.4,0.8-2.4v-2.7c0-1-0.3-1.8-0.8-2.4c-0.5-0.6-1.3-0.8-2.2-0.8c-0.9,0-1.7,0.3-2.2,0.8c-0.5,0.6-0.8,1.4-0.8,2.4
				v2.7c0,1,0.3,1.8,0.8,2.4c0.5,0.6,1.3,0.9,2.2,0.9C156.7,36.2,157.4,35.9,157.9,35.3z"/>
			<path style="fill:#FFFFFF;" d="M164.8,23.4h3.9l2.9,10.6l3.7-10.6h2.5l3.7,10.6l2.9-10.6h3.9l-5,16.3h-3l-3.7-10.9l-3.7,10.9h-3
				L164.8,23.4z"/>
			<path style="fill:#FFFFFF;" d="M191.1,23.4h4v16.3h-4V23.4z M200.7,29.8c0-0.9-0.3-1.6-0.8-2.1c-0.5-0.5-1.2-0.7-2.1-0.7
				c-0.9,0-1.6,0.2-2,0.7s-0.7,1.2-0.7,2l-0.3-3.5c0.5-1,1.1-1.8,1.8-2.3c0.7-0.5,1.6-0.8,2.6-0.8c1.7,0,3.1,0.6,4,1.7
				c1,1.2,1.4,2.8,1.4,4.9v9.9h-4V29.8z"/>
			<path style="fill:#FFFFFF;" d="M213.1,34.7c0,0.4,0.1,0.7,0.3,0.9c0.2,0.2,0.5,0.3,0.9,0.3h1v3.8h-2.1c-1.3,0-2.3-0.4-3-1.1
				c-0.7-0.8-1.1-1.8-1.1-3.2V16.9h4V34.7z"/>
			<path style="fill:#FFFFFF;" d="M221.2,39.1c-1-0.6-1.8-1.4-2.4-2.4s-0.8-2.3-0.8-3.8v-2.7c0-1.5,0.3-2.7,0.8-3.8s1.3-1.9,2.4-2.4
				c1-0.6,2.3-0.8,3.8-0.8s2.7,0.3,3.8,0.8c1,0.6,1.8,1.4,2.4,2.4c0.5,1.1,0.8,2.3,0.8,3.8v2.7c0,1.5-0.3,2.8-0.8,3.8
				c-0.5,1.1-1.3,1.9-2.4,2.4c-1,0.6-2.3,0.8-3.8,0.8S222.2,39.7,221.2,39.1z M227.1,35.3c0.5-0.6,0.8-1.4,0.8-2.4v-2.7
				c0-1-0.3-1.8-0.8-2.4c-0.5-0.6-1.3-0.8-2.2-0.8c-0.9,0-1.7,0.3-2.2,0.8c-0.5,0.6-0.8,1.4-0.8,2.4v2.7c0,1,0.3,1.8,0.8,2.4
				s1.3,0.9,2.2,0.9C225.9,36.2,226.6,35.9,227.1,35.3z"/>
			<path style="fill:#FFFFFF;" d="M236.6,38.7c-0.9-0.8-1.4-2.1-1.4-3.8c0-1.6,0.5-2.8,1.4-3.6c1-0.8,2.4-1.2,4.3-1.2h4.3l0.2,3.1
				H241c-0.7,0-1.2,0.1-1.6,0.4c-0.4,0.3-0.5,0.7-0.5,1.3c0,0.6,0.2,1.1,0.7,1.4c0.5,0.3,1.1,0.5,2.1,0.5c1.2,0,2.1-0.1,2.6-0.4
				s0.9-0.7,0.9-1.2l0.3,2.3c-0.1,0.5-0.4,1-0.9,1.4s-1,0.6-1.7,0.8c-0.7,0.2-1.4,0.3-2.1,0.3C238.9,40,237.5,39.6,236.6,38.7z
				 M245.1,29.4c0-0.9-0.3-1.5-0.8-2c-0.5-0.5-1.3-0.7-2.2-0.7c-0.6,0-1.2,0.1-1.8,0.3c-0.6,0.2-1.1,0.5-1.6,0.8l-2.6-2.3
				c0.6-0.7,1.5-1.3,2.5-1.7c1.1-0.4,2.2-0.6,3.5-0.6c1.4,0,2.6,0.2,3.6,0.7c1,0.5,1.7,1.2,2.3,2.1c0.5,0.9,0.8,2,0.8,3.3v10.5h-3.7
				V29.4z"/>
			<path style="fill:#FFFFFF;" d="M255.3,39.2c-0.8-0.5-1.5-1.3-1.9-2.4c-0.4-1-0.7-2.3-0.7-3.7v-2.9c0-1.5,0.2-2.7,0.6-3.8
				c0.4-1,1.1-1.8,1.9-2.4s1.8-0.8,3-0.8c0.9,0,1.7,0.3,2.5,0.8c0.7,0.5,1.3,1.2,1.8,2.2l-0.3,3.5c0-0.6-0.1-1.1-0.3-1.5
				c-0.2-0.4-0.5-0.7-0.9-1c-0.4-0.2-0.9-0.3-1.4-0.3c-0.9,0-1.6,0.3-2.1,0.9c-0.5,0.6-0.7,1.4-0.7,2.5v2.9c0,1,0.2,1.8,0.7,2.4
				c0.5,0.6,1.2,0.9,2.1,0.9c0.6,0,1-0.1,1.4-0.3c0.4-0.2,0.7-0.5,0.9-1c0.2-0.4,0.3-0.9,0.3-1.5l0.2,3.6c-0.3,0.9-0.9,1.5-1.6,2.1
				s-1.6,0.8-2.5,0.8C257.1,40,256.1,39.7,255.3,39.2z M262.2,16.9h4v22.9h-4V16.9z"/>
			<path style="fill:#FFFFFF;" d="M273.5,39.1c-1.1-0.6-1.9-1.4-2.5-2.5c-0.6-1.1-0.9-2.4-0.9-4v-1.8c0-1.6,0.3-3,0.8-4.1
				c0.6-1.1,1.4-2,2.4-2.6c1.1-0.6,2.3-0.9,3.8-0.9c1.4,0,2.6,0.4,3.6,1.1c1,0.7,1.8,1.7,2.3,3.1s0.8,2.9,0.8,4.8v1.1h-11.1v-2.8
				h7.5l0-0.3c-0.1-1.1-0.4-1.9-0.9-2.5s-1.2-0.9-2.1-0.9c-1.1,0-1.9,0.3-2.5,1c-0.6,0.7-0.9,1.6-0.9,2.9v2.1c0,1.2,0.3,2.1,1,2.7
				c0.7,0.6,1.6,1,2.8,1c0.6,0,1.2-0.1,1.8-0.3c0.6-0.2,1.1-0.5,1.6-0.9l2.6,2.4c-0.8,0.8-1.8,1.4-2.8,1.8c-1,0.4-2.1,0.6-3.2,0.6
				C275.9,40,274.6,39.7,273.5,39.1z"/>
			<path style="fill:#FFFFFF;" d="M287.8,23.4h4.2v16.3h-4.2V23.4z M296.1,27.2c-0.3-0.1-0.7-0.2-1.2-0.2c-0.9,0-1.6,0.3-2.1,0.8
				c-0.5,0.6-0.8,1.3-0.8,2.3l-0.3-3.9c0.5-1,1.1-1.7,1.8-2.3c0.7-0.5,1.6-0.8,2.5-0.8c0.7,0,1.3,0.1,1.9,0.3c0.6,0.2,1.1,0.5,1.5,1
				l-2.4,3.3C296.7,27.5,296.5,27.3,296.1,27.2z"/>
		</g>
	</g>
</g>
</svg>
